<?xml version="1.0" encoding="UTF-8" standalone="no" ?>
<!DOCTYPE svg PUBLIC "-//W3C//DTD SVG 1.1//EN" "http://www.w3.org/Graphics/SVG/1.1/DTD/svg11.dtd">
<svg xmlns="http://www.w3.org/2000/svg" xmlns:xlink="http://www.w3.org/1999/xlink" version="1.1" width="64" height="64" viewBox="0 0 64 64" xml:space="preserve">
<desc>Created with Fabric.js 4.6.0</desc>
<defs>
</defs>
<g transform="matrix(0.18 0 0 2.13 7.5 32)" id="TOG9SNeY5-WvXTq12Yxya"  >
<path style="stroke: rgb(255,255,255); stroke-width: 0; stroke-dasharray: none; stroke-linecap: butt; stroke-dashoffset: 0; stroke-linejoin: miter; stroke-miterlimit: 4; fill: rgb(255,255,255); fill-rule: nonzero; opacity: 1;" vector-effect="non-scaling-stroke"  transform=" translate(0, 0)" d="M -14.05152 -14.05152 L 14.05152 -14.05152 L 14.05152 14.05152 L -14.05152 14.05152 z" stroke-linecap="round" />
</g>
<g transform="matrix(0.18 0 0 1.78 17.5 37)" id="-f0qLJzUzfvObgEwQFDsr"  >
<path style="stroke: rgb(255,255,255); stroke-width: 0; stroke-dasharray: none; stroke-linecap: butt; stroke-dashoffset: 0; stroke-linejoin: miter; stroke-miterlimit: 4; fill: rgb(255,255,255); fill-rule: nonzero; opacity: 1;" vector-effect="non-scaling-stroke"  transform=" translate(0, 0)" d="M -14.05152 -14.05152 L 14.05152 -14.05152 L 14.05152 14.05152 L -14.05152 14.05152 z" stroke-linecap="round" />
</g>
<g transform="matrix(0.18 0 0 1.07 27.5 47)" id="d48iDAmQTaEx0D_qEr_kd"  >
<path style="stroke: rgb(255,255,255); stroke-width: 0; stroke-dasharray: none; stroke-linecap: butt; stroke-dashoffset: 0; stroke-linejoin: miter; stroke-miterlimit: 4; fill: rgb(255,255,255); fill-rule: nonzero; opacity: 1;" vector-effect="non-scaling-stroke"  transform=" translate(0, 0)" d="M -14.05152 -14.05152 L 14.05152 -14.05152 L 14.05152 14.05152 L -14.05152 14.05152 z" stroke-linecap="round" />
</g>
<g transform="matrix(0.18 0 0 0.53 37.5 54.5)" id="cK16CjMrdrdtcVQa_m1ZB"  >
<path style="stroke: rgb(255,255,255); stroke-width: 0; stroke-dasharray: none; stroke-linecap: butt; stroke-dashoffset: 0; stroke-linejoin: miter; stroke-miterlimit: 4; fill: rgb(255,255,255); fill-rule: nonzero; opacity: 1;" vector-effect="non-scaling-stroke"  transform=" translate(0, 0)" d="M -14.05152 -14.05152 L 14.05152 -14.05152 L 14.05152 14.05152 L -14.05152 14.05152 z" stroke-linecap="round" />
</g>
<g transform="matrix(1.96 0 0 0.18 32.5 4.5)" id="Z2cDaiLZFwruV7hFZdQmT"  >
<path style="stroke: rgb(255,255,255); stroke-width: 0; stroke-dasharray: none; stroke-linecap: butt; stroke-dashoffset: 0; stroke-linejoin: miter; stroke-miterlimit: 4; fill: rgb(255,255,255); fill-rule: nonzero; opacity: 1;" vector-effect="non-scaling-stroke"  transform=" translate(0, 0)" d="M -14.05152 -14.05152 L 14.05152 -14.05152 L 14.05152 14.05152 L -14.05152 14.05152 z" stroke-linecap="round" />
</g>
<g transform="matrix(1.25 0 0 0.18 32.5 14.5)" id="-YiaghUVcr-23NEGsyFHa"  >
<path style="stroke: rgb(255,255,255); stroke-width: 0; stroke-dasharray: none; stroke-linecap: butt; stroke-dashoffset: 0; stroke-linejoin: miter; stroke-miterlimit: 4; fill: rgb(255,255,255); fill-rule: nonzero; opacity: 1;" vector-effect="non-scaling-stroke"  transform=" translate(0, 0)" d="M -14.05152 -14.05152 L 14.05152 -14.05152 L 14.05152 14.05152 L -14.05152 14.05152 z" stroke-linecap="round" />
</g>
<g transform="matrix(0.89 0 0 0.18 37.5 34.5)" id="XPQL0O9h_vplRGCfaq3rW"  >
<path style="stroke: rgb(255,255,255); stroke-width: 0; stroke-dasharray: none; stroke-linecap: butt; stroke-dashoffset: 0; stroke-linejoin: miter; stroke-miterlimit: 4; fill: rgb(255,255,255); fill-rule: nonzero; opacity: 1;" vector-effect="non-scaling-stroke"  transform=" translate(0, 0)" d="M -14.05152 -14.05152 L 14.05152 -14.05152 L 14.05152 14.05152 L -14.05152 14.05152 z" stroke-linecap="round" />
</g>
<g transform="matrix(0.18 0 0 0.89 47.5 24.5)" id="EG_h2u-b8o61GSH8UVb0X"  >
<path style="stroke: rgb(255,255,255); stroke-width: 0; stroke-dasharray: none; stroke-linecap: butt; stroke-dashoffset: 0; stroke-linejoin: miter; stroke-miterlimit: 4; fill: rgb(255,255,255); fill-rule: nonzero; opacity: 1;" vector-effect="non-scaling-stroke"  transform=" translate(0, 0)" d="M -14.05152 -14.05152 L 14.05152 -14.05152 L 14.05152 14.05152 L -14.05152 14.05152 z" stroke-linecap="round" />
</g>
<g transform="matrix(0.18 0 0 1.6 57.5 24.5)" id="ZkNy4BfQHIwW-ivxx82vI"  >
<path style="stroke: rgb(255,255,255); stroke-width: 0; stroke-dasharray: none; stroke-linecap: butt; stroke-dashoffset: 0; stroke-linejoin: miter; stroke-miterlimit: 4; fill: rgb(255,255,255); fill-rule: nonzero; opacity: 1;" vector-effect="non-scaling-stroke"  transform=" translate(0, 0)" d="M -14.05152 -14.05152 L 14.05152 -14.05152 L 14.05152 14.05152 L -14.05152 14.05152 z" stroke-linecap="round" />
</g>
<g transform="matrix(0.89 0 0 0.18 47.5 44.5)" id="V_xKI58taT96CcOm2IL4Q"  >
<path style="stroke: rgb(255,255,255); stroke-width: 0; stroke-dasharray: none; stroke-linecap: butt; stroke-dashoffset: 0; stroke-linejoin: miter; stroke-miterlimit: 4; fill: rgb(255,255,255); fill-rule: nonzero; opacity: 1;" vector-effect="non-scaling-stroke"  transform=" translate(0, 0)" d="M -14.05152 -14.05152 L 14.05152 -14.05152 L 14.05152 14.05152 L -14.05152 14.05152 z" stroke-linecap="round" />
</g>
<g transform="matrix(0.53 0 0 0.18 32.5 24.5)" id="pmL6lVVqUq6DfLqyOEgJr"  >
<path style="stroke: rgb(255,255,255); stroke-width: 0; stroke-dasharray: none; stroke-linecap: butt; stroke-dashoffset: 0; stroke-linejoin: miter; stroke-miterlimit: 4; fill: rgb(255,255,255); fill-rule: nonzero; opacity: 1;" vector-effect="non-scaling-stroke"  transform=" translate(0, 0)" d="M -14.05152 -14.05152 L 14.05152 -14.05152 L 14.05152 14.05152 L -14.05152 14.05152 z" stroke-linecap="round" />
</g>
</svg>